<svg width="700" height="400" viewBox="0 0 700 400" fill="none" xmlns="http://www.w3.org/2000/svg">
<rect width="700" height="400" rx="40" fill="#BB2222"/>
<path d="M540.594 331.062C543.844 331.062 546.75 331.656 549.312 332.844C551.938 333.969 554.156 335.5 555.969 337.438C557.781 339.375 559.156 341.562 560.094 344C561.031 346.438 561.5 348.969 561.5 351.594C561.5 356.719 560.656 360.812 558.969 363.875C557.281 366.875 555.188 369.188 552.688 370.812C550.25 372.375 547.688 373.375 545 373.812C542.312 374.25 540 374.469 538.062 374.469C535.938 374.469 533.906 374.312 531.969 374C530.031 373.625 528.25 373.188 526.625 372.688C525.062 372.125 523.688 371.594 522.5 371.094C521.312 370.531 520.406 370.094 519.781 369.781V360.406C520.656 360.969 521.75 361.594 523.062 362.281C524.438 362.906 525.875 363.531 527.375 364.156C528.875 364.719 530.438 365.188 532.062 365.562C533.75 365.938 535.312 366.125 536.75 366.125C541.375 366.125 545 364.938 547.625 362.562C550.25 360.188 551.562 356.531 551.562 351.594C551.562 348.031 550.406 345.219 548.094 343.156C545.844 341.094 542.875 340.062 539.188 340.062C538 340.062 536.812 340.156 535.625 340.344C534.438 340.469 533.312 340.688 532.25 341L533.375 331.719C534.625 331.469 535.938 331.312 537.312 331.25C538.75 331.125 539.844 331.062 540.594 331.062ZM528.125 343.438H519.312C519.312 342.938 519.375 342 519.5 340.625C519.625 339.25 519.781 337.625 519.969 335.75C520.156 333.812 520.375 331.719 520.625 329.469C520.875 327.219 521.125 324.938 521.375 322.625C522 317.25 522.719 311.344 523.531 304.906H557.75V314.094H531.969C531.344 318.719 530.844 322.312 530.469 324.875C530.094 327.438 529.812 329.344 529.625 330.594C529.5 331.844 529.406 332.625 529.344 332.938C529.344 333.188 529.344 333.344 529.344 333.406L528.594 339.688L528.125 343.438ZM602.375 313.062C600.062 313.062 597.969 313.5 596.094 314.375C594.219 315.25 592.625 316.75 591.312 318.875C590 320.938 588.969 323.625 588.219 326.938C587.531 330.25 587.156 334.312 587.094 339.125C587.156 342.938 587.406 346.312 587.844 349.25C588.281 352.188 588.938 354.688 589.812 356.75L584.656 367.719C581.781 364.781 579.562 360.969 578 356.281C576.438 351.531 575.656 345.812 575.656 339.125C575.656 333.312 576.25 328.219 577.438 323.844C578.688 319.406 580.438 315.719 582.688 312.781C585 309.844 587.781 307.625 591.031 306.125C594.344 304.562 598.031 303.781 602.094 303.781C606.406 303.781 610.188 304.594 613.438 306.219L609.312 315.031C607.25 313.719 604.938 313.062 602.375 313.062ZM619.25 310.25C622.312 313.125 624.625 316.969 626.188 321.781C627.812 326.594 628.625 332.375 628.625 339.125C628.625 344.938 628 350.062 626.75 354.5C625.562 358.938 623.812 362.625 621.5 365.562C619.188 368.5 616.406 370.719 613.156 372.219C609.906 373.719 606.219 374.469 602.094 374.469C597.656 374.469 593.719 373.594 590.281 371.844L594.5 362.938C596.438 364.5 598.875 365.281 601.812 365.281C604.125 365.281 606.219 364.844 608.094 363.969C610.031 363.031 611.656 361.531 612.969 359.469C614.281 357.406 615.281 354.719 615.969 351.406C616.719 348.031 617.125 343.938 617.188 339.125C617.125 335.188 616.844 331.75 616.344 328.812C615.844 325.875 615.125 323.375 614.188 321.312C614.125 321.25 614.094 321.188 614.094 321.125L619.25 310.25ZM654.219 322.719C654.219 325.219 654.938 327.25 656.375 328.812C657.812 330.312 659.594 331.656 661.719 332.844C663.844 333.969 666.156 335.094 668.656 336.219C671.156 337.281 673.469 338.594 675.594 340.156C677.781 341.719 679.594 343.688 681.031 346.062C682.469 348.375 683.188 351.375 683.188 355.062C683.188 357.25 682.781 359.375 681.969 361.438C681.219 363.5 680.094 365.375 678.594 367.062C677.156 368.75 675.406 370.219 673.344 371.469C671.281 372.656 668.906 373.469 666.219 373.906V383.094H658.625V374.281C655.938 374.156 653.156 373.719 650.281 372.969C647.406 372.219 645 371.031 643.062 369.406L645.031 361.344C645.906 361.844 647 362.344 648.312 362.844C649.688 363.281 651.094 363.719 652.531 364.156C653.969 364.531 655.406 364.844 656.844 365.094C658.281 365.344 659.625 365.469 660.875 365.469C664.688 365.469 667.594 364.594 669.594 362.844C671.656 361.031 672.688 358.375 672.688 354.875C672.688 352.75 671.969 350.938 670.531 349.438C669.094 347.938 667.281 346.594 665.094 345.406C662.969 344.156 660.656 342.938 658.156 341.75C655.656 340.5 653.312 339.062 651.125 337.438C648.938 335.75 647.125 333.781 645.688 331.531C644.25 329.281 643.531 326.469 643.531 323.094C643.531 320.531 643.938 318.188 644.75 316.062C645.625 313.938 646.781 312.094 648.219 310.531C649.656 308.906 651.344 307.594 653.281 306.594C655.281 305.531 657.406 304.781 659.656 304.344V296.281H667.25V303.875C669.688 304 672.094 304.344 674.469 304.906C676.844 305.406 678.781 306.156 680.281 307.156C679.906 307.969 679.469 308.875 678.969 309.875C678.469 310.812 678 311.719 677.562 312.594C677.125 313.406 676.75 314.094 676.438 314.656C676.125 315.219 675.938 315.531 675.875 315.594C675.5 315.406 675.062 315.156 674.562 314.844C674.125 314.531 673.469 314.219 672.594 313.906C671.719 313.594 670.562 313.375 669.125 313.25C667.688 313.125 665.844 313.156 663.594 313.344C662.344 313.469 661.156 313.844 660.031 314.469C658.906 315.031 657.906 315.75 657.031 316.625C656.156 317.5 655.469 318.5 654.969 319.625C654.469 320.688 654.219 321.719 654.219 322.719Z" fill="black" fill-opacity="0.8"/>
<path d="M82.25 52.5C93.9167 50.75 105 46.0834 95.0833 31.5C91 25.6667 86.9167 23.3334 83.4167 23.3334C77.5833 23.3334 73.5 29.75 70 36.1667C66.5 29.75 62.4167 23.3334 56.5833 23.3334C53.0833 23.3334 49 25.6667 44.9167 31.5C34.4167 46.0834 46.0833 50.75 57.75 52.5H23.3333V70H116.667V52.5H82.25ZM83.4167 29.1667C84 29.1667 86.3333 29.75 90.4167 35C93.3333 39.0834 93.9167 41.4167 93.3333 42.5834C92.1667 44.3334 85.75 46.6667 74.0833 47.25C74.0833 46.0834 73.5 44.9167 72.9167 43.75C76.4167 35.5834 80.5 29.1667 83.4167 29.1667V29.1667ZM46.6667 42.5834C46.0833 41.4167 46.6667 39.0834 49.5833 35C53.6667 29.75 56 29.1667 56.5833 29.1667C59.5 29.1667 63.5833 35.5834 67.0833 43.75C66.5 44.9167 65.9167 46.0834 65.9167 47.25C54.25 46.6667 47.8333 44.3334 46.6667 42.5834ZM64.1667 64.1667V52.5H75.8333V64.1667H64.1667Z" fill="black" fill-opacity="0.8"/>
<path d="M75.8333 110.833H64.1667V75.8334H29.1667V116.667H110.833V75.8334H75.8333V110.833Z" fill="black" fill-opacity="0.8"/>
</svg>
