<svg width="700" height="400" viewBox="0 0 700 400" fill="none" xmlns="http://www.w3.org/2000/svg">
<rect width="700" height="400" rx="40" fill="#679C31"/>
<path d="M609.594 331.062C612.844 331.062 615.75 331.656 618.312 332.844C620.938 333.969 623.156 335.5 624.969 337.438C626.781 339.375 628.156 341.562 629.094 344C630.031 346.438 630.5 348.969 630.5 351.594C630.5 356.719 629.656 360.812 627.969 363.875C626.281 366.875 624.188 369.188 621.688 370.812C619.25 372.375 616.688 373.375 614 373.812C611.312 374.25 609 374.469 607.062 374.469C604.938 374.469 602.906 374.312 600.969 374C599.031 373.625 597.25 373.188 595.625 372.688C594.062 372.125 592.688 371.594 591.5 371.094C590.312 370.531 589.406 370.094 588.781 369.781V360.406C589.656 360.969 590.75 361.594 592.062 362.281C593.438 362.906 594.875 363.531 596.375 364.156C597.875 364.719 599.438 365.188 601.062 365.562C602.75 365.938 604.312 366.125 605.75 366.125C610.375 366.125 614 364.938 616.625 362.562C619.25 360.188 620.562 356.531 620.562 351.594C620.562 348.031 619.406 345.219 617.094 343.156C614.844 341.094 611.875 340.062 608.188 340.062C607 340.062 605.812 340.156 604.625 340.344C603.438 340.469 602.312 340.688 601.25 341L602.375 331.719C603.625 331.469 604.938 331.312 606.312 331.25C607.75 331.125 608.844 331.062 609.594 331.062ZM597.125 343.438H588.312C588.312 342.938 588.375 342 588.5 340.625C588.625 339.25 588.781 337.625 588.969 335.75C589.156 333.812 589.375 331.719 589.625 329.469C589.875 327.219 590.125 324.938 590.375 322.625C591 317.25 591.719 311.344 592.531 304.906H626.75V314.094H600.969C600.344 318.719 599.844 322.312 599.469 324.875C599.094 327.438 598.812 329.344 598.625 330.594C598.5 331.844 598.406 332.625 598.344 332.938C598.344 333.188 598.344 333.344 598.344 333.406L597.594 339.688L597.125 343.438ZM656.469 322.719C656.469 325.219 657.188 327.25 658.625 328.812C660.062 330.312 661.844 331.656 663.969 332.844C666.094 333.969 668.406 335.094 670.906 336.219C673.406 337.281 675.719 338.594 677.844 340.156C680.031 341.719 681.844 343.688 683.281 346.062C684.719 348.375 685.438 351.375 685.438 355.062C685.438 357.25 685.031 359.375 684.219 361.438C683.469 363.5 682.344 365.375 680.844 367.062C679.406 368.75 677.656 370.219 675.594 371.469C673.531 372.656 671.156 373.469 668.469 373.906V383.094H660.875V374.281C658.188 374.156 655.406 373.719 652.531 372.969C649.656 372.219 647.25 371.031 645.312 369.406L647.281 361.344C648.156 361.844 649.25 362.344 650.562 362.844C651.938 363.281 653.344 363.719 654.781 364.156C656.219 364.531 657.656 364.844 659.094 365.094C660.531 365.344 661.875 365.469 663.125 365.469C666.938 365.469 669.844 364.594 671.844 362.844C673.906 361.031 674.938 358.375 674.938 354.875C674.938 352.75 674.219 350.938 672.781 349.438C671.344 347.938 669.531 346.594 667.344 345.406C665.219 344.156 662.906 342.938 660.406 341.75C657.906 340.5 655.562 339.062 653.375 337.438C651.188 335.75 649.375 333.781 647.938 331.531C646.5 329.281 645.781 326.469 645.781 323.094C645.781 320.531 646.188 318.188 647 316.062C647.875 313.938 649.031 312.094 650.469 310.531C651.906 308.906 653.594 307.594 655.531 306.594C657.531 305.531 659.656 304.781 661.906 304.344V296.281H669.5V303.875C671.938 304 674.344 304.344 676.719 304.906C679.094 305.406 681.031 306.156 682.531 307.156C682.156 307.969 681.719 308.875 681.219 309.875C680.719 310.812 680.25 311.719 679.812 312.594C679.375 313.406 679 314.094 678.688 314.656C678.375 315.219 678.188 315.531 678.125 315.594C677.75 315.406 677.312 315.156 676.812 314.844C676.375 314.531 675.719 314.219 674.844 313.906C673.969 313.594 672.812 313.375 671.375 313.25C669.938 313.125 668.094 313.156 665.844 313.344C664.594 313.469 663.406 313.844 662.281 314.469C661.156 315.031 660.156 315.75 659.281 316.625C658.406 317.5 657.719 318.5 657.219 319.625C656.719 320.688 656.469 321.719 656.469 322.719Z" fill="black" fill-opacity="0.8"/>
<path d="M82.25 52.5C93.9167 50.75 105 46.0834 95.0833 31.5C91 25.6667 86.9167 23.3334 83.4167 23.3334C77.5833 23.3334 73.5 29.75 70 36.1667C66.5 29.75 62.4167 23.3334 56.5833 23.3334C53.0833 23.3334 49 25.6667 44.9167 31.5C34.4167 46.0834 46.0833 50.75 57.75 52.5H23.3333V70H116.667V52.5H82.25ZM83.4167 29.1667C84 29.1667 86.3333 29.75 90.4167 35C93.3333 39.0834 93.9167 41.4167 93.3333 42.5834C92.1667 44.3334 85.75 46.6667 74.0833 47.25C74.0833 46.0834 73.5 44.9167 72.9167 43.75C76.4167 35.5834 80.5 29.1667 83.4167 29.1667V29.1667ZM46.6667 42.5834C46.0833 41.4167 46.6667 39.0834 49.5833 35C53.6667 29.75 56 29.1667 56.5833 29.1667C59.5 29.1667 63.5833 35.5834 67.0833 43.75C66.5 44.9167 65.9167 46.0834 65.9167 47.25C54.25 46.6667 47.8333 44.3334 46.6667 42.5834ZM64.1667 64.1667V52.5H75.8333V64.1667H64.1667Z" fill="black" fill-opacity="0.8"/>
<path d="M75.8333 110.833H64.1667V75.8334H29.1667V116.667H110.833V75.8334H75.8333V110.833Z" fill="black" fill-opacity="0.8"/>
</svg>
