<svg width="700" height="400" viewBox="0 0 700 400" fill="none" xmlns="http://www.w3.org/2000/svg">
<rect width="700" height="400" rx="40" fill="#BB5922"/>
<path d="M562.062 325.438C562.062 327.875 561.531 330.406 560.469 333.031C559.406 335.594 558 338.156 556.25 340.719C554.5 343.219 552.562 345.656 550.438 348.031C548.375 350.406 546.281 352.656 544.156 354.781C542.094 356.906 540.125 358.844 538.25 360.594C536.438 362.281 534.938 363.719 533.75 364.906H563.094V374H520.156V363.5C521.281 362.5 522.844 361.156 524.844 359.469C526.844 357.719 529 355.781 531.312 353.656C533.625 351.531 535.938 349.281 538.25 346.906C540.562 344.469 542.656 342.031 544.531 339.594C546.469 337.094 548.031 334.656 549.219 332.281C550.469 329.906 551.094 327.656 551.094 325.531C551.094 323.344 550.688 321.531 549.875 320.094C549.125 318.594 548.156 317.375 546.969 316.438C545.781 315.5 544.469 314.844 543.031 314.469C541.656 314.094 540.344 313.906 539.094 313.906C536.656 313.906 534.625 314 533 314.188C531.438 314.312 530.062 314.531 528.875 314.844C527.688 315.094 526.625 315.469 525.688 315.969C524.75 316.469 523.75 317.031 522.688 317.656L519.406 310.719C520.531 309.719 521.906 308.812 523.531 308C525.219 307.188 526.938 306.531 528.688 306.031C530.5 305.531 532.281 305.156 534.031 304.906C535.781 304.594 537.406 304.438 538.906 304.438C542.969 304.438 546.438 305.094 549.312 306.406C552.25 307.719 554.656 309.406 556.531 311.469C558.406 313.469 559.781 315.719 560.656 318.219C561.594 320.719 562.062 323.125 562.062 325.438ZM603.219 313.062C600.906 313.062 598.812 313.5 596.938 314.375C595.062 315.25 593.469 316.75 592.156 318.875C590.844 320.938 589.812 323.625 589.062 326.938C588.375 330.25 588 334.312 587.938 339.125C588 342.938 588.25 346.312 588.688 349.25C589.125 352.188 589.781 354.688 590.656 356.75L585.5 367.719C582.625 364.781 580.406 360.969 578.844 356.281C577.281 351.531 576.5 345.812 576.5 339.125C576.5 333.312 577.094 328.219 578.281 323.844C579.531 319.406 581.281 315.719 583.531 312.781C585.844 309.844 588.625 307.625 591.875 306.125C595.188 304.562 598.875 303.781 602.938 303.781C607.25 303.781 611.031 304.594 614.281 306.219L610.156 315.031C608.094 313.719 605.781 313.062 603.219 313.062ZM620.094 310.25C623.156 313.125 625.469 316.969 627.031 321.781C628.656 326.594 629.469 332.375 629.469 339.125C629.469 344.938 628.844 350.062 627.594 354.5C626.406 358.938 624.656 362.625 622.344 365.562C620.031 368.5 617.25 370.719 614 372.219C610.75 373.719 607.062 374.469 602.938 374.469C598.5 374.469 594.562 373.594 591.125 371.844L595.344 362.938C597.281 364.5 599.719 365.281 602.656 365.281C604.969 365.281 607.062 364.844 608.938 363.969C610.875 363.031 612.5 361.531 613.812 359.469C615.125 357.406 616.125 354.719 616.812 351.406C617.562 348.031 617.969 343.938 618.031 339.125C617.969 335.188 617.688 331.75 617.188 328.812C616.688 325.875 615.969 323.375 615.031 321.312C614.969 321.25 614.938 321.188 614.938 321.125L620.094 310.25ZM655.062 322.719C655.062 325.219 655.781 327.25 657.219 328.812C658.656 330.312 660.438 331.656 662.562 332.844C664.688 333.969 667 335.094 669.5 336.219C672 337.281 674.312 338.594 676.438 340.156C678.625 341.719 680.438 343.688 681.875 346.062C683.312 348.375 684.031 351.375 684.031 355.062C684.031 357.25 683.625 359.375 682.812 361.438C682.062 363.5 680.938 365.375 679.438 367.062C678 368.75 676.25 370.219 674.188 371.469C672.125 372.656 669.75 373.469 667.062 373.906V383.094H659.469V374.281C656.781 374.156 654 373.719 651.125 372.969C648.25 372.219 645.844 371.031 643.906 369.406L645.875 361.344C646.75 361.844 647.844 362.344 649.156 362.844C650.531 363.281 651.938 363.719 653.375 364.156C654.812 364.531 656.25 364.844 657.688 365.094C659.125 365.344 660.469 365.469 661.719 365.469C665.531 365.469 668.438 364.594 670.438 362.844C672.5 361.031 673.531 358.375 673.531 354.875C673.531 352.75 672.812 350.938 671.375 349.438C669.938 347.938 668.125 346.594 665.938 345.406C663.812 344.156 661.5 342.938 659 341.75C656.5 340.5 654.156 339.062 651.969 337.438C649.781 335.75 647.969 333.781 646.531 331.531C645.094 329.281 644.375 326.469 644.375 323.094C644.375 320.531 644.781 318.188 645.594 316.062C646.469 313.938 647.625 312.094 649.062 310.531C650.5 308.906 652.188 307.594 654.125 306.594C656.125 305.531 658.25 304.781 660.5 304.344V296.281H668.094V303.875C670.531 304 672.938 304.344 675.312 304.906C677.688 305.406 679.625 306.156 681.125 307.156C680.75 307.969 680.312 308.875 679.812 309.875C679.312 310.812 678.844 311.719 678.406 312.594C677.969 313.406 677.594 314.094 677.281 314.656C676.969 315.219 676.781 315.531 676.719 315.594C676.344 315.406 675.906 315.156 675.406 314.844C674.969 314.531 674.312 314.219 673.438 313.906C672.562 313.594 671.406 313.375 669.969 313.25C668.531 313.125 666.688 313.156 664.438 313.344C663.188 313.469 662 313.844 660.875 314.469C659.75 315.031 658.75 315.75 657.875 316.625C657 317.5 656.312 318.5 655.812 319.625C655.312 320.688 655.062 321.719 655.062 322.719Z" fill="black" fill-opacity="0.8"/>
<path d="M82.25 52.5C93.9167 50.75 105 46.0834 95.0833 31.5C91 25.6667 86.9167 23.3334 83.4167 23.3334C77.5833 23.3334 73.5 29.75 70 36.1667C66.5 29.75 62.4167 23.3334 56.5833 23.3334C53.0833 23.3334 49 25.6667 44.9167 31.5C34.4167 46.0834 46.0833 50.75 57.75 52.5H23.3333V70H116.667V52.5H82.25ZM83.4167 29.1667C84 29.1667 86.3333 29.75 90.4167 35C93.3333 39.0834 93.9167 41.4167 93.3333 42.5834C92.1667 44.3334 85.75 46.6667 74.0833 47.25C74.0833 46.0834 73.5 44.9167 72.9167 43.75C76.4167 35.5834 80.5 29.1667 83.4167 29.1667V29.1667ZM46.6667 42.5834C46.0833 41.4167 46.6667 39.0834 49.5833 35C53.6667 29.75 56 29.1667 56.5833 29.1667C59.5 29.1667 63.5833 35.5834 67.0833 43.75C66.5 44.9167 65.9167 46.0834 65.9167 47.25C54.25 46.6667 47.8333 44.3334 46.6667 42.5834ZM64.1667 64.1667V52.5H75.8333V64.1667H64.1667Z" fill="black" fill-opacity="0.8"/>
<path d="M75.8333 110.833H64.1667V75.8334H29.1667V116.667H110.833V75.8334H75.8333V110.833Z" fill="black" fill-opacity="0.8"/>
</svg>
